<svg width="741" height="240" viewBox="0 0 741 240" fill="none" xmlns="http://www.w3.org/2000/svg">
<path d="M482.489 0C429.946 0 382.991 27.2606 382.991 77.6266C382.991 135.387 466.267 139.376 466.267 168.394C466.267 180.612 452.279 191.548 428.388 191.548C394.482 191.548 369.141 176.266 369.141 176.266L358.298 227.091C358.298 227.091 387.491 240 426.249 240C483.695 240 528.898 211.401 528.898 160.174C528.898 99.1395 445.275 95.2685 445.275 68.3357C445.275 58.7648 456.758 48.2779 480.581 48.2779C507.46 48.2779 529.39 59.3922 529.39 59.3922L540.001 10.3039C540.001 10.3039 516.14 0 482.489 0ZM1.77227 3.70478L0.5 11.1143C0.5 11.1143 22.6049 15.1638 42.5139 23.2417C68.1484 32.5046 69.9745 37.897 74.2918 54.6454L121.337 236.179H184.401L281.557 3.70478H218.637L156.209 161.766L130.734 27.7858C128.398 12.4519 116.565 3.70478 102.079 3.70478H1.77227ZM306.857 3.70478L257.499 236.179H317.498L366.683 3.70478H306.857ZM641.494 3.70478C627.026 3.70478 619.36 11.4582 613.735 25.0072L525.833 236.179H588.753L600.926 200.984H677.58L684.983 236.179H740.5L692.067 3.70478H641.494ZM649.677 66.5123L668.327 153.748H618.362L649.677 66.5123Z" fill="#1434CB"/>
</svg>
