<svg width="340" height="72" viewBox="0 0 340 72" fill="none" xmlns="http://www.w3.org/2000/svg">
<path d="M64.602 0C44.7937 0 29.0371 16.1772 29.0371 36C29.0371 56.0506 45.0188 72 64.602 72C84.1851 72 100.167 55.8228 100.167 36C100.392 16.1772 84.1851 0 64.602 0ZM64.602 49.443C57.399 49.443 51.3214 43.2912 51.3214 36C51.3214 28.7088 57.399 22.557 64.602 22.557C71.805 22.557 77.8825 28.7088 77.8825 36C77.8825 43.2912 72.0301 49.443 64.602 49.443Z" fill="#8B3FFD"/>
<path d="M29.0371 10.4813V62.8864H16.2068L0 10.4813H29.0371Z" fill="#8B3FFD"/>
<path d="M329.087 19.8229L321.209 39.4178C320.984 39.6456 320.984 40.1012 320.984 40.3292L320.758 40.7848L320.533 40.3292C320.533 40.1012 320.308 39.6456 320.308 39.4178L312.43 19.8229H302.301L315.581 53.3166L309.955 66.076H320.084L338.767 19.8229H329.087Z" fill="black"/>
<path d="M254.356 21.6456C252.555 20.2785 250.304 19.3671 247.603 19.1393C243.101 18.6836 238.825 20.2785 235.899 23.2406V19.5951H226.669V53.0887H235.899V35.5444C235.899 31.6709 236.573 30.5317 237.249 29.6204C238.374 27.7976 240.4 26.8862 242.877 26.8862C245.352 26.8862 247.603 28.0254 248.729 29.8482C249.404 31.2153 249.628 33.038 249.628 33.9494C249.628 36.9115 249.628 53.0887 249.628 53.0887H258.858V32.8102C258.858 27.5696 257.282 23.9241 254.356 21.6456Z" fill="black"/>
<path d="M209.111 20.0507C204.61 18.4557 199.658 18.6837 195.156 20.7342C192.229 22.1014 189.529 24.3797 187.953 27.3418C186.377 29.8481 185.703 33.038 185.703 36.4557C185.703 39.8734 186.377 43.0633 187.953 45.5696C189.529 48.076 191.555 50.3545 194.255 51.7216C196.957 53.0887 200.108 54.0001 203.034 54.0001C204.61 54.0001 206.185 53.7722 207.761 53.3165C209.111 52.8608 210.463 52.4052 211.813 51.7216C214.514 50.1267 216.765 48.076 218.116 45.5696C219.691 43.0633 220.367 39.8734 220.367 36.4557C220.592 28.9368 216.315 22.557 209.111 20.0507ZM211.813 36.9115C211.588 39.8734 210.688 42.3797 208.887 43.9747C207.537 45.114 205.511 45.7976 203.034 46.0254C200.559 46.0254 198.758 45.3418 197.182 43.9747C195.382 42.3797 194.481 39.8734 194.255 36.9115C194.03 33.4938 195.382 30.7595 197.857 28.9368C199.207 28.0254 201.008 27.3418 202.809 27.3418C204.835 27.3418 206.411 28.0254 207.986 28.9368C210.688 30.5317 212.038 33.4938 211.813 36.9115Z" fill="black"/>
<path d="M175.123 21.6455C173.322 20.2785 171.071 19.3671 168.37 19.1392C167.92 19.1392 167.244 19.1392 166.795 19.1392C163.193 19.1392 160.042 20.7341 157.34 23.924L156.891 24.6076H155.99C155.315 23.4684 154.414 22.557 153.514 21.8734C151.713 20.5063 149.462 19.5949 146.761 19.3671C142.484 18.9114 139.108 20.2785 136.182 23.4684V20.0507H126.953V53.5442H136.182V36V35.5442C136.182 31.8987 136.632 30.9873 137.307 29.8482C138.433 28.0253 140.458 26.8861 142.709 27.1139C144.961 27.1139 146.987 28.2532 148.112 30.076C149.012 31.443 149.012 33.0379 149.012 34.6328V53.3164H158.241V35.3164C158.241 31.8987 158.69 30.7595 159.366 29.6202C160.491 27.7974 162.517 26.8861 164.769 26.8861C167.02 26.8861 168.821 28.0253 169.946 29.8482C170.622 30.9873 170.846 32.3545 170.846 33.2658C170.846 33.7215 170.846 34.1772 170.846 34.405V53.0886H180.075V32.5823C180.075 30.7595 179.85 28.9366 179.399 27.3417C178.5 25.0633 177.149 23.0126 175.123 21.6455Z" fill="black"/>
<path d="M293.522 43.0635C292.172 44.4306 289.02 46.9369 284.744 47.1647C281.142 47.3925 278.442 46.2534 276.416 44.2028C275.515 43.2913 274.84 41.9243 274.39 40.5572H299.825V40.3293C300.051 38.9622 300.275 37.823 300.275 36.4559C300.275 35.3167 300.051 33.7218 299.6 31.6711C298.474 27.7976 296.224 24.8357 293.298 22.5572C289.92 20.0508 286.769 19.3673 285.869 19.3673C279.342 18.2281 271.913 21.19 268.086 27.342C265.385 31.6711 265.611 36.0001 265.611 37.3673C265.611 38.9622 265.836 43.9749 269.887 48.5319C274.615 53.7723 281.142 54.0001 283.167 54.2281C292.172 54.4559 298.25 48.7597 299.6 47.6205L293.522 43.0635ZM277.766 28.9369C279.116 28.0256 280.692 27.342 282.718 27.342C284.744 27.342 286.32 28.0256 287.895 28.9369C289.246 30.0761 290.371 31.4432 291.046 33.0382H274.839C275.064 31.4432 276.19 29.8483 277.766 28.9369Z" fill="black"/>
</svg>
