<svg width="130" height="80" viewBox="0 0 130 80" fill="none" xmlns="http://www.w3.org/2000/svg">
<path d="M82.5772 8.552H47.4246V71.4479H82.5772V8.552Z" fill="#FF5F00"/>
<path d="M49.6567 39.9999C49.6512 33.9426 51.0298 27.9634 53.6882 22.515C56.3466 17.0666 60.2152 12.2918 65.001 8.552C59.0744 3.91383 51.9568 1.02942 44.4617 0.228451C36.9665 -0.572518 29.3962 0.742246 22.6161 4.02252C15.836 7.3028 10.1195 12.4162 6.12018 18.7783C2.12085 25.1404 0 32.4945 0 39.9999C0 47.5054 2.12085 54.8595 6.12018 61.2215C10.1195 67.5836 15.836 72.6971 22.6161 75.9773C29.3962 79.2576 36.9665 80.5724 44.4617 79.7714C51.9568 78.9705 59.0744 76.086 65.001 71.4479C60.2152 67.7081 56.3467 62.9333 53.6883 57.4848C51.0299 52.0364 49.6512 46.0573 49.6567 39.9999Z" fill="#EB001B"/>
<path d="M130 39.9999C130 47.5053 127.88 54.8593 123.881 61.2214C119.881 67.5835 114.165 72.6969 107.385 75.9772C100.605 79.2576 93.035 80.5724 85.5399 79.7714C78.0449 78.9705 70.9274 76.086 65.001 71.4479C69.7826 67.7043 73.6481 62.9287 76.3061 57.4812C78.9641 52.0336 80.3451 46.0563 80.3451 39.9999C80.3451 33.9436 78.9641 27.9662 76.3061 22.5187C73.6481 17.0711 69.7826 12.2955 65.001 8.55199C70.9274 3.91381 78.0449 1.0294 85.5399 0.22844C93.035 -0.572518 100.605 0.742303 107.385 4.02262C114.165 7.30293 119.881 12.4164 123.881 18.7785C127.88 25.1405 130 32.4946 130 39.9999Z" fill="#F79E1B"/>
</svg>
