<svg width="96" height="48" viewBox="0 0 96 48" fill="none" xmlns="http://www.w3.org/2000/svg">
<g clip-path="url(#clip0_4_479)">
<path d="M0 24C0 10.7452 10.7452 0 24 0H72C85.2548 0 96 10.7452 96 24C96 37.2548 85.2548 48 72 48H24C10.7452 48 0 37.2548 0 24Z" fill="#21A038"/>
<path d="M47.8756 26.6052V32.0828H44.736V14.4961H50.5859C56.1375 14.4961 58.4971 16.4826 58.4971 20.4523C58.4971 24.5466 55.7344 26.6052 50.5859 26.6052H47.8756ZM47.8756 17.3873V23.714H50.8251C53.7386 23.714 55.2461 22.7601 55.2461 20.3736C55.2461 18.2134 53.9352 17.3841 50.8775 17.3841L47.8756 17.3873Z" fill="white"/>
<path d="M60.1555 20.4024C60.9813 19.7829 62.4889 19.2715 64.6518 19.2715C68.3191 19.2715 70.1281 20.5303 70.1281 23.7952V32.0854H67.3654V29.8235C66.7624 31.279 65.2319 32.2853 63.2197 32.2853C60.6831 32.2853 59.1788 30.8528 59.1788 28.391C59.1788 25.526 61.2632 24.7229 64.3503 24.7229H67.1884V24.1722C67.1884 22.3889 66.3363 21.8349 64.6518 21.8349C62.3414 21.8349 61.0108 22.7397 60.1587 24.0705L60.1555 20.4024ZM67.1852 27.6502V26.634H64.701C62.9673 26.634 62.1382 26.9618 62.1382 28.0894C62.1382 29.0433 62.8395 29.6465 64.1471 29.6465C66.1299 29.6465 67.0606 28.5156 67.1852 27.6502Z" fill="white"/>
<path d="M71.58 19.5234H74.8572L78.2984 28.1382L81.1102 19.5234H84.2237L79.2029 33.4158C78.0952 36.4283 76.9678 37.1069 75.3095 37.1069C74.5295 37.1069 73.6709 36.8807 73.3005 36.5562V33.8157C73.7045 34.2099 74.2437 34.4351 74.8081 34.4451C75.7093 34.4451 76.3877 33.842 76.8662 32.1505L71.58 19.5234Z" fill="white"/>
<path d="M18.8875 20.4143V24.2726L24 27.4785L36.2406 18.4704C35.8087 17.5203 35.2676 16.6237 34.6282 15.7988L24 23.6202L18.8875 20.4143Z" fill="white"/>
<path d="M34.3267 23.7147V23.9933C34.3303 26.3043 33.56 28.5499 32.1387 30.3718C30.7174 32.1937 28.727 33.487 26.485 34.0454C24.243 34.6037 21.8787 34.3948 19.7693 33.4522C17.6598 32.5095 15.9268 30.8873 14.8467 28.8445C13.7666 26.8016 13.4016 24.4557 13.8101 22.1812C14.2185 19.9066 15.3768 17.8344 17.1001 16.2952C18.8235 14.7559 21.0126 13.8384 23.3181 13.6889C25.6237 13.5394 27.9129 14.1666 29.8205 15.4704L32.4423 13.5462C30.0718 11.6301 27.1206 10.5771 24.0729 10.5598C21.0253 10.5425 18.0623 11.5621 15.6702 13.4512C13.2782 15.3402 11.5993 17.9865 10.9091 20.9558C10.2189 23.925 10.5584 27.0408 11.8718 29.7916C13.1852 32.5424 15.3946 34.7649 18.1372 36.0943C20.8799 37.4237 23.9929 37.7809 26.9653 37.1075C29.9377 36.434 32.5929 34.7698 34.4951 32.388C36.3973 30.0062 37.4335 27.0483 37.4336 23.9999C37.4332 23.1919 37.3609 22.3856 37.2173 21.5905L34.3267 23.7147Z" fill="white"/>
</g>
<defs>
<clipPath id="clip0_4_479">
<rect width="96" height="48" fill="white"/>
</clipPath>
</defs>
</svg>
