<svg width="392" height="156" viewBox="0 0 392 156" fill="none" xmlns="http://www.w3.org/2000/svg">
<g clip-path="url(#clip0_170_1077)">
<path d="M39.6799 78L19.3299 89.75L0.439941 122.47L77.4599 78H39.6799Z" fill="#8F4794"/>
<path d="M97.7999 44.46L77.4599 56.21L58.5699 88.93L135.59 44.46H97.7999Z" fill="#E40646"/>
<path d="M77.4599 32.71L58.5699 -0.0100098V67.07V88.93V156.01L77.4599 123.29V32.71Z" fill="#F9B429"/>
<path d="M58.5699 -0.0100098L77.4599 32.71L97.7999 44.46H135.58L58.5699 -0.0100098Z" fill="#EF8019"/>
<path d="M58.5699 67.07V156.01L77.4599 123.29V99.79L58.5699 67.07Z" fill="#78B72A"/>
<path d="M97.8001 111.54L77.4501 123.29L58.5601 156.01L135.58 111.54H97.8001Z" fill="#00853F"/>
<path d="M0.439941 33.53V122.47L19.3299 89.75V66.25L0.439941 33.53Z" fill="#5B57A2"/>
<path d="M58.5699 67.07L58.5799 67.1L0.439941 33.53L19.3299 66.25L97.7999 111.54H135.58L58.5699 67.07Z" fill="#0698D6"/>
<path d="M359.51 92.56H361.95V96.67H364.2C365.26 96.67 366.13 96.8 366.82 97.07C367.51 97.33 368.06 97.68 368.48 98.12C368.9 98.56 369.19 99.06 369.36 99.63C369.53 100.2 369.62 100.79 369.62 101.4C369.62 102.01 369.52 102.6 369.33 103.18C369.14 103.76 368.82 104.28 368.39 104.73C367.95 105.19 367.37 105.56 366.64 105.84C365.91 106.12 365 106.27 363.93 106.27H359.51V92.56ZM361.95 98.96V103.99H363.72C364.94 103.99 365.8 103.78 366.29 103.35C366.79 102.92 367.04 102.3 367.04 101.49C367.04 100.66 366.79 100.03 366.28 99.6C365.77 99.17 364.93 98.96 363.75 98.96H361.95ZM372.25 92.56H374.69V106.27H372.25V92.56Z" fill="#1D1346"/>
<path d="M386.35 99.17L391.56 106.27H388.58L384.56 100.73L380.48 106.27H377.65L382.83 99.29L377.96 92.56H380.94L384.66 97.74L388.44 92.56H391.27L386.35 99.17Z" fill="#1D1346"/>
<path d="M174.34 104.29C173.75 105.04 172.99 105.61 172.06 106C171.13 106.39 170.13 106.58 169.07 106.58C167.97 106.58 166.98 106.41 166.08 106.08C165.19 105.74 164.41 105.26 163.77 104.63C163.12 104 162.62 103.24 162.26 102.36C161.9 101.48 161.73 100.5 161.73 99.42C161.73 98.42 161.9 97.49 162.25 96.62C162.6 95.75 163.08 94.99 163.7 94.35C164.32 93.71 165.05 93.2 165.89 92.83C166.73 92.45 167.66 92.27 168.68 92.27C169.78 92.27 170.79 92.41 171.71 92.68C172.63 92.95 173.42 93.42 174.07 94.07L172.94 95.99C172.35 95.46 171.73 95.09 171.07 94.88C170.41 94.67 169.72 94.56 169.01 94.56C168.4 94.56 167.81 94.68 167.24 94.91C166.67 95.14 166.17 95.47 165.73 95.9C165.29 96.33 164.95 96.84 164.69 97.44C164.44 98.04 164.31 98.7 164.31 99.44C164.31 100.19 164.44 100.87 164.71 101.47C164.97 102.07 165.33 102.58 165.78 103.01C166.23 103.44 166.75 103.76 167.35 103.98C167.95 104.2 168.58 104.31 169.25 104.31C170.08 104.31 170.83 104.15 171.49 103.82C172.15 103.5 172.71 103.07 173.18 102.54L174.34 104.29Z" fill="#1D1346"/>
<path d="M177.51 106.27V92.56H179.95V102.77L187.87 92.56H190.31V106.27H187.87V96.07L179.95 106.27H177.51Z" fill="#1D1346"/>
<path d="M206.42 104.29C205.83 105.04 205.07 105.61 204.14 106C203.21 106.39 202.21 106.58 201.15 106.58C200.05 106.58 199.06 106.41 198.17 106.08C197.28 105.74 196.5 105.26 195.85 104.63C195.2 104 194.7 103.24 194.34 102.36C193.99 101.48 193.81 100.5 193.81 99.42C193.81 98.42 193.98 97.49 194.33 96.62C194.67 95.75 195.16 94.99 195.78 94.35C196.4 93.71 197.13 93.2 197.97 92.83C198.81 92.45 199.74 92.27 200.76 92.27C201.86 92.27 202.87 92.41 203.79 92.68C204.71 92.95 205.5 93.42 206.15 94.07L205.02 95.99C204.43 95.46 203.81 95.09 203.15 94.88C202.49 94.67 201.8 94.56 201.09 94.56C200.48 94.56 199.89 94.68 199.32 94.91C198.75 95.14 198.25 95.47 197.81 95.9C197.37 96.33 197.03 96.84 196.77 97.44C196.52 98.04 196.39 98.7 196.39 99.44C196.39 100.19 196.52 100.87 196.79 101.47C197.05 102.07 197.41 102.58 197.86 103.01C198.31 103.44 198.83 103.76 199.43 103.98C200.03 104.2 200.66 104.31 201.33 104.31C202.16 104.31 202.91 104.15 203.57 103.82C204.23 103.5 204.79 103.07 205.26 102.54L206.42 104.29Z" fill="#1D1346"/>
<path d="M207.67 92.56H220.16V95H215.13V106.27H212.69V95H207.66V92.56H207.67Z" fill="#1D1346"/>
<path d="M233.92 104.78C233.25 105.39 232.45 105.84 231.53 106.14C230.6 106.43 229.69 106.58 228.77 106.58C227.65 106.58 226.64 106.41 225.74 106.08C224.84 105.74 224.06 105.26 223.43 104.63C222.79 104 222.3 103.24 221.95 102.36C221.6 101.48 221.43 100.5 221.43 99.42C221.43 98.42 221.59 97.49 221.9 96.62C222.22 95.75 222.67 94.99 223.27 94.35C223.87 93.71 224.6 93.2 225.48 92.83C226.35 92.45 227.36 92.27 228.5 92.27C229.37 92.27 230.2 92.42 230.98 92.73C231.76 93.03 232.44 93.46 233.01 94.01C233.58 94.56 234.03 95.22 234.37 95.99C234.71 96.76 234.87 97.61 234.87 98.55C234.87 99.18 234.82 99.73 234.72 100.19H224.18C224.28 101.49 224.77 102.5 225.64 103.22C226.51 103.94 227.62 104.3 228.96 104.3C229.85 104.3 230.67 104.16 231.4 103.89C232.13 103.62 232.72 103.28 233.17 102.87L233.92 104.78ZM228.38 94.54C227.12 94.54 226.11 94.89 225.36 95.58C224.61 96.27 224.16 97.14 224.02 98.2H232.34C232.28 97.06 231.9 96.17 231.21 95.52C230.52 94.86 229.58 94.54 228.38 94.54Z" fill="#1D1346"/>
<path d="M238.19 92.56H240.41L245.68 99.35L250.68 92.56H252.84V106.27H250.4V96.28L245.65 102.65H245.56L240.62 96.28V106.27H238.18V92.56H238.19Z" fill="#1D1346"/>
<path d="M257.35 93.5C257.96 93.11 258.66 92.81 259.45 92.59C260.24 92.37 261.06 92.25 261.91 92.25C263.85 92.25 265.21 92.74 265.99 93.71C266.77 94.68 267.16 96.07 267.16 97.85V106.26H264.88V104.49C264.47 105.02 263.92 105.48 263.23 105.88C262.54 106.28 261.63 106.47 260.49 106.47C259.23 106.47 258.22 106.1 257.44 105.36C256.67 104.62 256.28 103.58 256.28 102.24C256.28 101.55 256.41 100.93 256.68 100.38C256.94 99.83 257.3 99.37 257.76 99.01C258.22 98.64 258.77 98.37 259.41 98.17C260.05 97.98 260.74 97.88 261.47 97.88C262 97.88 262.58 97.94 263.22 98.06C263.86 98.18 264.41 98.41 264.88 98.76C264.88 98.13 264.84 97.55 264.77 97.01C264.7 96.47 264.56 96.02 264.34 95.64C264.13 95.26 263.81 94.97 263.4 94.76C262.98 94.55 262.44 94.44 261.77 94.44C260.92 94.44 260.21 94.54 259.65 94.73C259.09 94.92 258.54 95.16 257.99 95.45L257.35 93.5ZM261.34 104.29C262.23 104.29 262.96 104.1 263.52 103.71C264.08 103.32 264.53 102.93 264.88 102.52V100.78C264.03 100.17 263 99.87 261.8 99.87C261.43 99.87 261.07 99.92 260.72 100.01C260.36 100.1 260.05 100.24 259.78 100.42C259.51 100.6 259.29 100.84 259.12 101.12C258.96 101.4 258.88 101.74 258.88 102.13C258.88 102.78 259.09 103.3 259.52 103.7C259.94 104.09 260.55 104.29 261.34 104.29Z" fill="#1D1346"/>
<path d="M290.03 86.54C289.6 87.1 289.14 87.5 288.64 87.72C288.14 87.94 287.61 88.11 287.03 88.23C286.45 88.35 285.83 88.47 285.17 88.58C284.51 88.69 283.8 88.92 283.05 89.27C282.4 89.56 281.87 89.94 281.45 90.43C281.03 90.92 280.69 91.46 280.43 92.07C280.17 92.67 279.97 93.3 279.84 93.97C279.71 94.63 279.62 95.28 279.58 95.91H279.64C279.86 95.42 280.16 94.99 280.54 94.6C280.92 94.21 281.34 93.88 281.82 93.6C282.3 93.32 282.81 93.1 283.36 92.94C283.91 92.79 284.48 92.71 285.07 92.71C286.04 92.71 286.93 92.87 287.72 93.2C288.51 93.52 289.18 93.99 289.73 94.59C290.28 95.19 290.7 95.91 290.99 96.74C291.28 97.57 291.43 98.51 291.43 99.54C291.43 100.49 291.26 101.4 290.91 102.25C290.56 103.1 290.08 103.85 289.46 104.49C288.84 105.13 288.1 105.64 287.24 106.01C286.38 106.39 285.43 106.57 284.39 106.57C283.27 106.57 282.27 106.37 281.37 105.98C280.48 105.58 279.72 105.02 279.09 104.29C278.46 103.56 277.98 102.67 277.64 101.61C277.3 100.55 277.14 99.37 277.14 98.05C277.14 97.03 277.2 95.97 277.32 94.87C277.44 93.76 277.69 92.7 278.05 91.69C278.41 90.68 278.93 89.76 279.59 88.93C280.25 88.11 281.13 87.46 282.23 87C283.02 86.66 283.74 86.43 284.39 86.31C285.04 86.2 285.62 86.1 286.14 86.01C286.66 85.92 287.13 85.79 287.56 85.61C287.99 85.44 288.37 85.12 288.72 84.65L290.03 86.54ZM279.74 98.5C279.74 99.39 279.85 100.2 280.08 100.91C280.3 101.62 280.62 102.23 281.02 102.72C281.43 103.22 281.91 103.6 282.48 103.88C283.05 104.15 283.67 104.29 284.34 104.29C285.01 104.29 285.62 104.17 286.17 103.92C286.72 103.68 287.19 103.35 287.59 102.93C287.99 102.51 288.3 102.03 288.52 101.47C288.74 100.91 288.86 100.31 288.86 99.66C288.86 98.32 288.48 97.21 287.73 96.32C286.98 95.44 285.89 94.99 284.47 94.99C283.82 94.99 283.23 95.09 282.7 95.29C282.17 95.49 281.7 95.76 281.3 96.08C280.9 96.4 280.56 96.78 280.3 97.19C280.02 97.62 279.84 98.05 279.74 98.5Z" fill="#1D1346"/>
<path d="M294.94 92.56H297.38V96.67H299.63C300.69 96.67 301.56 96.8 302.25 97.07C302.94 97.33 303.49 97.68 303.91 98.12C304.33 98.56 304.62 99.06 304.79 99.63C304.96 100.2 305.05 100.79 305.05 101.4C305.05 102.01 304.95 102.6 304.76 103.18C304.57 103.76 304.25 104.28 303.82 104.73C303.38 105.19 302.8 105.56 302.07 105.84C301.34 106.12 300.43 106.27 299.36 106.27H294.94V92.56ZM297.37 98.96V103.99H299.14C300.36 103.99 301.22 103.78 301.71 103.35C302.21 102.92 302.46 102.3 302.46 101.49C302.46 100.66 302.21 100.03 301.7 99.6C301.19 99.17 300.35 98.96 299.17 98.96H297.37ZM307.67 92.56H310.11V106.27H307.67V92.56Z" fill="#1D1346"/>
<path d="M326.19 104.29C325.6 105.04 324.84 105.61 323.91 106C322.98 106.39 321.98 106.58 320.92 106.58C319.82 106.58 318.83 106.41 317.94 106.08C317.05 105.74 316.27 105.26 315.62 104.63C314.97 104 314.47 103.24 314.11 102.36C313.76 101.48 313.58 100.5 313.58 99.42C313.58 98.42 313.75 97.49 314.1 96.62C314.44 95.75 314.93 94.99 315.55 94.35C316.17 93.71 316.9 93.2 317.74 92.83C318.58 92.45 319.51 92.27 320.53 92.27C321.63 92.27 322.64 92.41 323.56 92.68C324.48 92.95 325.27 93.42 325.92 94.07L324.79 95.99C324.2 95.46 323.58 95.09 322.92 94.88C322.26 94.67 321.57 94.56 320.86 94.56C320.25 94.56 319.66 94.68 319.09 94.91C318.52 95.14 318.02 95.47 317.58 95.9C317.14 96.33 316.8 96.84 316.54 97.44C316.29 98.04 316.16 98.7 316.16 99.44C316.16 100.19 316.29 100.87 316.56 101.47C316.82 102.07 317.18 102.58 317.63 103.01C318.08 103.44 318.6 103.76 319.2 103.98C319.8 104.2 320.43 104.31 321.1 104.31C321.93 104.31 322.68 104.15 323.34 103.82C324 103.5 324.56 103.07 325.03 102.54L326.19 104.29Z" fill="#1D1346"/>
<path d="M327.44 92.56H339.93V95H334.9V106.27H332.46V95H327.43V92.56H327.44Z" fill="#1D1346"/>
<path d="M342.58 92.56H345.02V94.17C345.49 93.62 346.14 93.17 346.98 92.8C347.82 92.43 348.72 92.25 349.68 92.25C350.65 92.25 351.53 92.42 352.32 92.77C353.1 93.12 353.77 93.59 354.31 94.2C354.86 94.81 355.28 95.54 355.57 96.39C355.86 97.24 356.01 98.18 356.01 99.19C356.01 100.23 355.84 101.2 355.51 102.1C355.17 103 354.69 103.79 354.06 104.45C353.43 105.11 352.68 105.63 351.81 106C350.94 106.38 349.96 106.56 348.89 106.56C348.16 106.56 347.45 106.48 346.77 106.33C346.09 106.18 345.51 105.94 345.02 105.61V112.34H342.58V92.56ZM348.98 94.54C348.17 94.54 347.41 94.72 346.71 95.09C346.01 95.46 345.45 95.9 345.02 96.43V103.22C345.63 103.63 346.23 103.91 346.82 104.06C347.41 104.21 348.03 104.29 348.68 104.29C349.41 104.29 350.07 104.16 350.66 103.91C351.25 103.66 351.75 103.31 352.15 102.87C352.56 102.43 352.87 101.91 353.09 101.3C353.31 100.69 353.43 100.02 353.43 99.29C353.43 98.6 353.33 97.96 353.14 97.39C352.95 96.81 352.66 96.31 352.27 95.88C351.88 95.45 351.42 95.12 350.87 94.89C350.32 94.66 349.69 94.54 348.98 94.54Z" fill="#1D1346"/>
<path d="M172.54 123.21H165.08V134.63H162.64V120.92H174.98V134.63H172.54V123.21Z" fill="#1D1346"/>
<path d="M188.78 123.36H183.97L183.82 125.67C183.66 127.62 183.41 129.19 183.09 130.39C182.76 131.59 182.37 132.51 181.9 133.16C181.43 133.81 180.89 134.25 180.28 134.47C179.67 134.69 179.01 134.81 178.3 134.81L178.12 132.43C178.38 132.45 178.69 132.38 179.03 132.23C179.38 132.08 179.71 131.74 180.03 131.23C180.35 130.71 180.65 129.97 180.91 129.01C181.17 128.05 181.35 126.77 181.43 125.19L181.67 120.92H191.2V134.63H188.76V123.36H188.78Z" fill="#1D1346"/>
<path d="M195.69 121.87C196.3 121.48 197 121.18 197.79 120.96C198.58 120.74 199.4 120.62 200.25 120.62C202.19 120.62 203.55 121.11 204.33 122.08C205.11 123.05 205.5 124.44 205.5 126.22V134.63H203.22V132.86C202.81 133.39 202.26 133.85 201.57 134.25C200.88 134.65 199.97 134.84 198.83 134.84C197.57 134.84 196.56 134.47 195.78 133.73C195.01 132.99 194.62 131.95 194.62 130.61C194.62 129.92 194.75 129.3 195.02 128.75C195.28 128.2 195.64 127.74 196.1 127.38C196.56 127.01 197.11 126.74 197.75 126.54C198.39 126.35 199.08 126.25 199.81 126.25C200.34 126.25 200.92 126.31 201.56 126.43C202.2 126.55 202.75 126.78 203.22 127.13C203.22 126.5 203.18 125.92 203.11 125.38C203.04 124.84 202.9 124.39 202.68 124.01C202.47 123.63 202.15 123.34 201.74 123.13C201.32 122.92 200.78 122.81 200.11 122.81C199.26 122.81 198.55 122.91 197.99 123.1C197.43 123.29 196.88 123.53 196.33 123.82L195.69 121.87ZM199.68 132.65C200.57 132.65 201.3 132.46 201.86 132.07C202.42 131.68 202.87 131.29 203.22 130.88V129.14C202.37 128.53 201.34 128.23 200.14 128.23C199.77 128.23 199.41 128.28 199.06 128.37C198.7 128.46 198.39 128.6 198.12 128.78C197.85 128.96 197.63 129.2 197.46 129.48C197.3 129.76 197.22 130.1 197.22 130.49C197.22 131.14 197.43 131.66 197.86 132.06C198.28 132.46 198.89 132.65 199.68 132.65Z" fill="#1D1346"/>
<path d="M207.88 120.93H220.37V123.37H215.34V134.64H212.9V123.37H207.87V120.93H207.88Z" fill="#1D1346"/>
<path d="M234.14 133.14C233.47 133.75 232.67 134.2 231.75 134.5C230.82 134.79 229.91 134.94 228.99 134.94C227.87 134.94 226.86 134.77 225.96 134.44C225.06 134.1 224.28 133.62 223.65 132.99C223.01 132.36 222.52 131.6 222.17 130.72C221.82 129.84 221.65 128.86 221.65 127.78C221.65 126.78 221.81 125.85 222.12 124.98C222.44 124.11 222.89 123.35 223.49 122.71C224.09 122.07 224.82 121.56 225.7 121.19C226.57 120.81 227.58 120.63 228.72 120.63C229.59 120.63 230.42 120.78 231.2 121.09C231.98 121.39 232.66 121.82 233.23 122.37C233.8 122.92 234.25 123.58 234.59 124.35C234.93 125.12 235.09 125.97 235.09 126.91C235.09 127.54 235.04 128.09 234.94 128.55H224.4C224.5 129.85 224.99 130.86 225.86 131.58C226.73 132.3 227.84 132.66 229.18 132.66C230.07 132.66 230.89 132.52 231.62 132.25C232.35 131.98 232.94 131.64 233.39 131.23L234.14 133.14ZM228.59 122.91C227.33 122.91 226.32 123.26 225.57 123.95C224.82 124.64 224.37 125.51 224.23 126.57H232.55C232.49 125.43 232.11 124.54 231.42 123.89C230.73 123.23 229.79 122.91 228.59 122.91Z" fill="#1D1346"/>
<path d="M236.27 120.93H239.35L244.04 127.54L239.01 134.64H236.03L241.3 127.54L236.27 120.93ZM244.65 120.93H247.09V134.64H244.65V120.93ZM250.43 127.54L255.79 134.64H252.77L247.68 127.54L252.4 120.93H255.42L250.43 127.54Z" fill="#1D1346"/>
<path d="M269.29 133.14C268.62 133.75 267.82 134.2 266.9 134.5C265.97 134.79 265.06 134.94 264.14 134.94C263.02 134.94 262.01 134.77 261.11 134.44C260.21 134.1 259.43 133.62 258.8 132.99C258.16 132.36 257.67 131.6 257.32 130.72C256.97 129.84 256.8 128.86 256.8 127.78C256.8 126.78 256.96 125.85 257.27 124.98C257.59 124.11 258.04 123.35 258.64 122.71C259.24 122.07 259.97 121.56 260.85 121.19C261.72 120.81 262.73 120.63 263.87 120.63C264.74 120.63 265.57 120.78 266.35 121.09C267.13 121.39 267.81 121.82 268.38 122.37C268.95 122.92 269.4 123.58 269.74 124.35C270.08 125.12 270.24 125.97 270.24 126.91C270.24 127.54 270.19 128.09 270.09 128.55H259.55C259.65 129.85 260.14 130.86 261.01 131.58C261.88 132.3 262.99 132.66 264.33 132.66C265.22 132.66 266.04 132.52 266.77 132.25C267.5 131.98 268.09 131.64 268.54 131.23L269.29 133.14ZM263.75 122.91C262.49 122.91 261.48 123.26 260.73 123.95C259.98 124.64 259.53 125.51 259.39 126.57H267.71C267.65 125.43 267.27 124.54 266.58 123.89C265.89 123.23 264.94 122.91 263.75 122.91Z" fill="#1D1346"/>
<path d="M273.55 134.63V120.92H275.99V131.13L283.91 120.92H286.35V134.63H283.91V124.43L275.99 134.63H273.55ZM277.79 113.92C277.91 115.52 278.69 116.33 280.14 116.33C281.5 116.33 282.24 115.53 282.36 113.92H284.64C284.64 114.53 284.53 115.09 284.32 115.61C284.11 116.13 283.8 116.57 283.41 116.95C283.01 117.33 282.54 117.63 281.99 117.85C281.44 118.07 280.82 118.18 280.13 118.18C279.38 118.18 278.71 118.07 278.14 117.85C277.57 117.63 277.08 117.33 276.69 116.95C276.3 116.57 276.01 116.13 275.81 115.61C275.61 115.09 275.5 114.53 275.5 113.92H277.79Z" fill="#1D1346"/>
<path d="M295.33 35.14V75.16H281.27V47.05H267.73V75.17H253.67V35.14H295.33Z" fill="#1D1346"/>
<path d="M246.73 56.42C246.94 68.04 237.54 76.32 224.23 76.32C211.63 76.32 201.01 68.7 201.01 50.13C201.01 34.36 211.08 21.36 225.99 21.11C232.52 21.11 246.72 21.06 246.72 21.06L240.14 32.93C240.14 32.93 228.94 32.93 227.46 32.93C221.03 32.93 215.29 37.26 214.47 43.88C217.89 40.68 223.22 38.75 228.72 38.75C239 38.78 246.59 47.51 246.73 56.42ZM232.69 57.34C232.7 52.72 229.14 48.84 224.3 48.84C219.52 48.84 215.77 52.76 215.86 57.42C215.86 62.33 220.23 65.68 224.04 65.68C228.88 65.68 232.69 62.03 232.69 57.34Z" fill="#1D1346"/>
<path d="M190.18 61.48C190.18 61.48 185.46 64.65 179.16 64.54C175.21 64.54 169.92 61.11 169.92 55.03C170 48.85 175.24 45.54 179.18 45.54C185.32 45.34 190.17 48.6 190.17 48.6L195.41 39.15C190.75 35.77 186.3 34.02 179.94 33.98C166.21 33.98 156.77 45.14 156.77 55.04C156.77 66.66 167.27 76.26 179.86 76.32C185.41 76.41 191.08 74.55 195.45 71.09L190.18 61.48Z" fill="#1D1346"/>
</g>
<defs>
<clipPath id="clip0_170_1077">
<rect width="392" height="156" fill="white"/>
</clipPath>
</defs>
</svg>
